<svg width="148" height="404" viewBox="0 0 148 404" fill="none" xmlns="http://www.w3.org/2000/svg">
<path fill-rule="evenodd" clip-rule="evenodd" d="M-0.999461 16.945C27.7736 27.2466 53.4481 43.321 74.4909 63.5307C112.382 99.922 134.707 149.027 134.707 202C134.707 254.972 112.382 304.078 74.4909 340.469C53.4481 360.679 27.7736 376.753 -0.999466 387.055L-0.999466 404C85.6198 374.597 147.679 295.259 147.679 202C147.679 108.741 85.6198 29.4032 -0.999461 -6.28081e-05L-0.999461 16.945Z" fill="#EDECF3"/>
<path fill-rule="evenodd" clip-rule="evenodd" d="M-0.999723 132.116C26.5431 153.665 39.9119 178.556 39.9119 202C39.9119 225.445 26.5431 250.336 -0.999725 271.885L-0.999725 290.846C32.5842 266.987 52.8838 235.942 52.8838 202C52.8838 168.059 32.5842 137.014 -0.999723 113.155L-0.999723 132.116Z" fill="#EDECF3"/>
<path fill-rule="evenodd" clip-rule="evenodd" d="M-0.998944 72.5774C11.2016 78.7712 22.4775 85.8867 32.6548 93.7693C70.8667 123.365 91.8001 162.09 91.8001 202C91.8001 241.91 70.8667 280.634 32.6548 310.23C22.4775 318.113 11.2016 325.228 -0.998947 331.422L-0.998947 348.963C62.4841 318.516 104.772 264.083 104.772 202C104.772 139.916 62.4841 85.4832 -0.998944 55.0365L-0.998944 72.5774Z" fill="#EDECF3"/>
</svg>
