<svg width="189" height="42" viewBox="0 0 189 42" fill="none" xmlns="http://www.w3.org/2000/svg">
<path fill-rule="evenodd" clip-rule="evenodd" d="M94.9037 0.207072L94.5159 0L94.1545 0.250422C92.9947 1.05418 91.2374 2.49891 89.6972 4.33126C88.3607 5.92131 87.1416 7.85775 86.6663 9.96203L86.663 9.96132C86.6621 9.96546 86.6612 9.96961 86.6603 9.97376C81.3922 10.4643 77.2685 14.8958 77.2685 20.2902C77.2685 21.6951 77.6834 22.9803 78.2963 24.1593C77.7009 25.1259 76.8966 26.598 76.2332 28.1757C75.5213 29.8687 74.9241 31.792 75.0073 33.3623L75.0265 33.7263L75.3315 33.9261C77.0788 35.0708 81.9098 36.8104 88.0773 35.3858L94.5029 42L100.991 35.4017C107.125 36.7974 111.927 35.0665 113.667 33.9261L113.972 33.7263L113.992 33.3623C114.075 31.792 113.478 29.8687 112.766 28.1757C112.163 26.7424 111.444 25.3963 110.871 24.4371C110.851 24.4014 110.831 24.3651 110.809 24.3283C111.466 23.1138 111.902 21.791 111.902 20.2902C111.902 14.8941 107.775 10.4615 102.505 9.97329C100.874 4.54777 96.8141 1.22701 94.9037 0.207072ZM100.985 9.94307C99.5207 5.57094 96.3408 2.76481 94.6064 1.69625C93.5437 2.47689 92.0868 3.72543 90.7994 5.25704C89.3477 6.98413 88.1718 8.99957 87.9377 11.0584L87.9062 11.0548C87.7068 12.0523 87.5064 13.183 87.4104 13.8845C87.3134 15.0142 87.2315 16.5369 87.4106 16.7541L89.0692 15.7821C89.0628 15.4782 89.0805 15.0512 89.1155 14.6366H89.1146C89.1146 14.0436 89.3421 13.1716 89.5786 12.4071C89.8215 11.6224 90.1109 10.8382 90.3085 10.3426C90.3153 10.3224 90.3222 10.3024 90.329 10.2824C90.3325 10.2833 90.336 10.2843 90.3396 10.2852C90.8641 8.13731 93.3199 5.47523 94.5029 4.35729C95.8545 5.52829 98.4861 8.25178 98.8436 10.2818C99.5318 10.0972 100.248 9.98168 100.985 9.94307ZM95.9825 13.305C96.0806 13.3567 96.178 13.4081 96.2747 13.4592C96.8048 13.7392 97.3127 14.0102 97.7714 14.2589C101.213 12.2092 104.48 13.6919 105.691 14.6982C108.26 16.1772 108.588 19.6393 108.418 21.4406C108.959 21.9882 109.447 22.5211 109.857 23.015C110.238 22.1631 110.462 21.2721 110.462 20.2902C110.462 15.3625 106.466 11.3678 101.537 11.3678C99.4359 11.3678 97.5073 12.0915 95.9825 13.305ZM109.105 24.3811C108.571 23.6786 107.757 22.7838 106.749 21.8159C105.699 20.8079 104.472 19.7523 103.202 18.7958C103.159 19.1785 103.115 19.6071 103.072 20.0245L103.072 20.0248L103.072 20.0251L103.071 20.0266L103.058 20.1596C103.05 20.2337 103.043 20.3071 103.035 20.3798C103.004 20.679 102.974 20.9638 102.945 21.2041C104.5 22.25 105.815 23.2393 106.649 24.0628L106.653 24.0591L106.743 24.1568C106.863 24.2792 106.972 24.3977 107.069 24.5119L107.595 25.0851L108.124 25.7485C108.125 25.7469 108.127 25.7452 108.128 25.7436L108.213 25.8604L108.578 26.3178L108.574 26.3212C110.048 28.1797 110.765 30.9146 110.812 31.8852C108.758 32.8089 105.681 32.6357 103.968 32.3737L102.194 34.1785C107.134 35.0692 110.963 33.8065 112.558 32.9156C112.523 31.7355 112.069 30.2312 111.439 28.7333C110.861 27.359 110.168 26.0644 109.624 25.1567L109.624 25.1568L109.622 25.1533C109.549 25.0302 109.478 24.9143 109.41 24.8063C109.329 24.6852 109.237 24.5556 109.134 24.4184C109.124 24.4065 109.114 24.3946 109.104 24.3828C109.105 24.3823 109.105 24.3817 109.105 24.3811ZM107.199 26.897L106.501 26.0213L106.203 25.6972L94.688 37.1893L91.7804 34.2683L91.7665 34.2733C91.2822 34.4481 90.712 34.6237 90.1285 34.7886C89.9656 34.8347 89.801 34.8801 89.6361 34.9247L94.5091 39.9407L106.481 27.7656C106.606 27.6134 106.731 27.463 106.854 27.314L106.857 27.311L106.857 27.3109C106.972 27.1718 107.086 27.0339 107.199 26.897ZM79.1378 25.5609C78.6391 26.4294 78.0572 27.5519 77.5604 28.7333C76.9305 30.2312 76.4761 31.7355 76.4412 32.9156C78.0142 33.7944 81.7613 35.0348 86.6038 34.2138L86.5972 34.1835C87.3783 34.0145 88.6044 33.724 89.7367 33.4039C90.3033 33.2437 90.8378 33.0785 91.2776 32.9198C91.4085 32.8725 91.5259 32.8276 91.6298 32.7855C91.7479 32.7338 91.8699 32.6792 91.9932 32.6231C92.0644 32.587 92.1199 32.5548 92.16 32.5271L92.1703 32.542C92.6657 32.3136 93.1619 32.0723 93.4952 31.9058L92.1172 30.6311C91.6839 30.9589 90.6899 31.3478 89.8712 31.6288C87.7963 32.5833 85.5196 32.572 84.0517 32.5648L83.9811 32.5644C82.3713 32.6333 80.3784 32.4895 78.8521 31.803C78.894 30.9362 79.2665 28.96 80.3873 27.2359C79.9618 26.7052 79.5342 26.1475 79.1378 25.5609ZM85.9049 31.084C86.6641 31.0352 87.4592 30.9303 88.2346 30.7063L82.2455 24.6897C80.8059 22.6681 79.0783 17.8232 83.6851 14.616C84.1464 14.2141 84.973 13.7128 86.0203 13.4369C86.103 12.8806 86.2275 12.1643 86.3613 11.4577C82.0345 12.0751 78.7082 15.7943 78.7082 20.2902C78.7082 21.6639 79.2069 22.9529 79.9846 24.2191C80.634 25.2766 81.4168 26.2282 82.1969 27.1766C82.3551 27.369 82.5133 27.5613 82.6702 27.7543L85.9049 31.084ZM101.603 20.2314C101.597 20.2873 101.592 20.3422 101.586 20.3961C101.561 20.574 101.531 20.7428 101.497 20.8565C101.496 20.8593 101.495 20.8618 101.494 20.8641C101.215 23.4654 98.4472 27.315 97.012 29.007L95.5106 27.8352C98.4456 24.4716 99.5532 21.2671 99.814 19.713L99.809 19.7123L99.822 19.6107L99.8223 19.6107L100.071 17.8735L100.277 16.0541L100.261 16.0522C100.288 15.63 100.308 14.9824 100.241 14.5543H102.133C102.07 15.4093 101.939 17.156 101.88 17.8324L101.874 17.8403L101.873 17.8402L101.873 17.8421L101.873 17.8429L101.873 17.8431C101.794 18.3729 101.712 19.1685 101.639 19.8847C101.632 19.9544 101.625 20.0234 101.618 20.0913L101.603 20.2314ZM98.6425 17.6905L98.5355 18.4391C95.6477 16.7258 92.6759 15.1102 90.6307 14.0502C90.6997 13.7113 90.812 13.2911 90.954 12.8324C90.9992 12.6863 91.0462 12.54 91.0939 12.3956C92.3783 13.0505 94.088 13.9316 95.6021 14.7315C96.4753 15.1929 97.28 15.6254 97.8994 15.9711C98.2095 16.1441 98.4688 16.2931 98.6653 16.4117C98.707 16.4368 98.7452 16.4602 98.7799 16.4818L98.6425 17.6905ZM83.027 23.7235C82.698 23.3465 82.0645 22.4365 82.1633 21.8115C84.2473 20.1531 89.0241 16.6143 91.4591 15.7262L93.3306 16.7952C89.9921 18.6729 83.2574 22.6873 83.027 23.7235ZM97.4027 32.7281L98.6573 31.3507C92.4874 28.2258 89.9304 22.8943 89.4231 20.6191L87.8601 21.5031C88.8801 27.0128 94.6469 31.2821 97.4027 32.7281Z" fill="#D6C6B4"/>
<path d="M60.3368 28.2861C59.2968 28.2861 58.3522 28.0694 57.5028 27.6361C56.6708 27.2027 56.0122 26.5614 55.5268 25.7121C55.0415 24.8454 54.7988 23.7794 54.7988 22.5141C54.7988 21.2661 55.0502 20.2001 55.5528 19.3161C56.0728 18.4147 56.7488 17.7214 57.5808 17.2361C58.4302 16.7507 59.3488 16.5081 60.3368 16.5081C61.3942 16.5081 62.2435 16.7161 62.8848 17.1321C63.5435 17.5481 64.0548 18.0421 64.4188 18.6141L64.2628 19.0301L64.5488 17.0021H67.2268V28.0001H64.3148V25.3221L64.6008 26.0241C64.5315 26.1281 64.3928 26.3014 64.1848 26.5441C63.9768 26.7694 63.6908 27.0207 63.3268 27.2981C62.9628 27.5754 62.5295 27.8094 62.0268 28.0001C61.5415 28.1907 60.9782 28.2861 60.3368 28.2861ZM61.1428 25.8941C61.6628 25.8941 62.1308 25.7987 62.5468 25.6081C62.9802 25.4174 63.3442 25.1487 63.6388 24.8021C63.9508 24.4554 64.1762 24.0394 64.3148 23.5541V21.1621C64.1762 20.7114 63.9508 20.3214 63.6388 19.9921C63.3268 19.6454 62.9455 19.3767 62.4948 19.1861C62.0615 18.9954 61.5762 18.9001 61.0388 18.9001C60.4495 18.9001 59.9035 19.0474 59.4008 19.3421C58.8982 19.6367 58.4908 20.0441 58.1788 20.5641C57.8842 21.0841 57.7368 21.6821 57.7368 22.3581C57.7368 23.0167 57.8928 23.6147 58.2048 24.1521C58.5168 24.6894 58.9328 25.1141 59.4528 25.4261C59.9728 25.7381 60.5362 25.8941 61.1428 25.8941Z" fill="#2C384A"/>
<path d="M48.8022 7.71997H51.7142V28H48.8022V7.71997Z" fill="#2C384A"/>
<path d="M37.7386 28.468C36.7333 28.468 35.9013 28.1646 35.2426 27.558C34.584 26.934 34.2373 26.1366 34.2026 25.166V17.002H37.1146V24.126C37.1493 24.6633 37.3053 25.1053 37.5826 25.452C37.86 25.7986 38.302 25.972 38.9086 25.972C39.4806 25.972 39.992 25.7986 40.4426 25.452C40.8933 25.088 41.24 24.594 41.4826 23.97C41.7426 23.346 41.8726 22.644 41.8726 21.864V17.002H44.7846V28H42.1586L41.9246 25.582L42.0026 25.972C41.7773 26.44 41.4566 26.8733 41.0406 27.272C40.6246 27.6533 40.1306 27.948 39.5586 28.156C39.004 28.364 38.3973 28.468 37.7386 28.468Z" fill="#2C384A"/>
<path d="M18.8711 22.3841C18.8711 21.2747 19.1311 20.2781 19.6511 19.3941C20.1711 18.4927 20.8991 17.7907 21.8351 17.2881C22.7884 16.7681 23.8631 16.5081 25.0591 16.5081C26.2898 16.5081 27.3558 16.7681 28.2571 17.2881C29.1758 17.7907 29.8864 18.4927 30.3891 19.3941C30.8918 20.2781 31.1431 21.2747 31.1431 22.3841C31.1431 23.4934 30.8918 24.4987 30.3891 25.4001C29.8864 26.2841 29.1758 26.9861 28.2571 27.5061C27.3558 28.0261 26.2811 28.2861 25.0331 28.2861C23.8544 28.2861 22.7971 28.0521 21.8611 27.5841C20.9251 27.0987 20.1884 26.4141 19.6511 25.5301C19.1311 24.6461 18.8711 23.5974 18.8711 22.3841ZM21.8091 22.4101C21.8091 23.0514 21.9478 23.6407 22.2251 24.1781C22.5024 24.6981 22.8838 25.1141 23.3691 25.4261C23.8544 25.7381 24.3918 25.8941 24.9811 25.8941C25.6224 25.8941 26.1771 25.7381 26.6451 25.4261C27.1304 25.1141 27.5031 24.6981 27.7631 24.1781C28.0404 23.6407 28.1791 23.0514 28.1791 22.4101C28.1791 21.7514 28.0404 21.1621 27.7631 20.6421C27.5031 20.1047 27.1304 19.6801 26.6451 19.3681C26.1771 19.0561 25.6224 18.9001 24.9811 18.9001C24.3744 18.9001 23.8284 19.0647 23.3431 19.3941C22.8751 19.7061 22.5024 20.1221 22.2251 20.6421C21.9478 21.1621 21.8091 21.7514 21.8091 22.4101Z" fill="#2C384A"/>
<path d="M0.599609 28V9.07202H5.98161C7.87094 9.07202 9.47428 9.35802 10.7916 9.93002C12.1089 10.4847 13.1749 11.2387 13.9896 12.192C14.8043 13.128 15.3936 14.1767 15.7576 15.338C16.1389 16.482 16.3296 17.6347 16.3296 18.796C16.3296 20.2174 16.0783 21.4914 15.5756 22.618C15.0729 23.7447 14.3883 24.7154 13.5216 25.53C12.6549 26.3274 11.6496 26.9427 10.5056 27.376C9.37894 27.792 8.17428 28 6.89161 28H0.599609ZM3.64161 25.088H6.34561C7.35094 25.088 8.26961 24.9494 9.10161 24.672C9.93361 24.3774 10.6529 23.9614 11.2596 23.424C11.8836 22.8694 12.3603 22.1847 12.6896 21.37C13.0363 20.5554 13.2096 19.628 13.2096 18.588C13.2096 17.4094 13.0103 16.404 12.6116 15.572C12.2303 14.7227 11.7189 14.038 11.0776 13.518C10.4536 12.9807 9.76894 12.5907 9.02361 12.348C8.27828 12.1054 7.54161 11.984 6.81361 11.984H3.64161V25.088Z" fill="#2C384A"/>
<path d="M182.316 28.2861C181.016 28.2861 179.907 28.0347 178.988 27.5321C178.07 27.0294 177.368 26.3361 176.882 25.4521C176.397 24.5507 176.154 23.5367 176.154 22.4101C176.154 21.3007 176.432 20.3041 176.986 19.4201C177.541 18.5361 178.286 17.8341 179.222 17.3141C180.176 16.7767 181.224 16.5081 182.368 16.5081C183.876 16.5081 185.116 16.9501 186.086 17.8341C187.074 18.7007 187.733 19.9314 188.062 21.5261L179.196 24.5161L178.52 22.8781L185.436 20.4081L184.838 20.7461C184.648 20.2261 184.336 19.7754 183.902 19.3941C183.486 19.0127 182.897 18.8221 182.134 18.8221C181.528 18.8221 180.99 18.9694 180.522 19.2641C180.054 19.5414 179.682 19.9401 179.404 20.4601C179.144 20.9627 179.014 21.5607 179.014 22.2541C179.014 22.9647 179.162 23.5887 179.456 24.1261C179.751 24.6634 180.15 25.0794 180.652 25.3741C181.155 25.6514 181.727 25.7901 182.368 25.7901C182.819 25.7901 183.252 25.7121 183.668 25.5561C184.084 25.4001 184.474 25.1921 184.838 24.9321L186.164 27.0901C185.592 27.4541 184.96 27.7487 184.266 27.9741C183.59 28.1821 182.94 28.2861 182.316 28.2861Z" fill="#2C384A"/>
<path d="M170.158 17.0019H173.07V27.9999H170.158V17.0019ZM170.028 13.0759C170.028 12.6252 170.201 12.2525 170.548 11.9579C170.912 11.6632 171.302 11.5159 171.718 11.5159C172.134 11.5159 172.506 11.6632 172.836 11.9579C173.182 12.2525 173.356 12.6252 173.356 13.0759C173.356 13.5265 173.182 13.8992 172.836 14.1939C172.506 14.4712 172.134 14.6099 171.718 14.6099C171.302 14.6099 170.912 14.4625 170.548 14.1679C170.201 13.8732 170.028 13.5092 170.028 13.0759Z" fill="#2C384A"/>
<path d="M158.914 28.286C157.874 28.286 156.947 28.0433 156.132 27.558C155.317 27.0726 154.676 26.3793 154.208 25.478C153.74 24.5766 153.506 23.528 153.506 22.332C153.506 21.1013 153.757 20.0526 154.26 19.186C154.763 18.3193 155.447 17.6606 156.314 17.21C157.198 16.742 158.186 16.508 159.278 16.508C160.075 16.508 160.838 16.664 161.566 16.976C162.294 17.2706 162.875 17.704 163.308 18.276L163.256 19.264V7.71997H166.142V28H163.23V25.53L163.516 26.232C162.961 26.8213 162.294 27.3153 161.514 27.714C160.751 28.0953 159.885 28.286 158.914 28.286ZM159.85 25.816C160.422 25.816 160.925 25.7206 161.358 25.53C161.809 25.3393 162.19 25.0706 162.502 24.724C162.831 24.36 163.074 23.9353 163.23 23.45V21.11C163.091 20.6593 162.857 20.2606 162.528 19.914C162.216 19.5673 161.826 19.2986 161.358 19.108C160.89 18.9173 160.387 18.822 159.85 18.822C159.226 18.822 158.654 18.9693 158.134 19.264C157.631 19.5586 157.224 19.966 156.912 20.486C156.6 21.006 156.444 21.604 156.444 22.28C156.444 22.9386 156.6 23.5366 156.912 24.074C157.224 24.6113 157.64 25.036 158.16 25.348C158.68 25.66 159.243 25.816 159.85 25.816Z" fill="#2C384A"/>
<path d="M147.509 17.0019H150.421V27.9999H147.509V17.0019ZM147.379 13.0759C147.379 12.6252 147.553 12.2525 147.899 11.9579C148.263 11.6632 148.653 11.5159 149.069 11.5159C149.485 11.5159 149.858 11.6632 150.187 11.9579C150.534 12.2525 150.707 12.6252 150.707 13.0759C150.707 13.5265 150.534 13.8992 150.187 14.1939C149.858 14.4712 149.485 14.6099 149.069 14.6099C148.653 14.6099 148.263 14.4625 147.899 14.1679C147.553 13.8732 147.379 13.5092 147.379 13.0759Z" fill="#2C384A"/>
<path d="M140.004 17.0021L140.264 20.1221L140.16 19.6801C140.472 19.0214 140.897 18.4581 141.434 17.9901C141.989 17.5047 142.552 17.1407 143.124 16.8981C143.696 16.6381 144.164 16.5081 144.528 16.5081L144.398 19.4201C143.566 19.3507 142.838 19.5067 142.214 19.8881C141.608 20.2521 141.131 20.7374 140.784 21.3441C140.455 21.9507 140.29 22.5921 140.29 23.2681V28.0001H137.378V17.0021H140.004Z" fill="#2C384A"/>
<path d="M126.774 9.07202C128.698 9.07202 130.214 9.46202 131.324 10.242C132.45 11.022 133.014 12.218 133.014 13.83C133.014 14.9047 132.762 15.8234 132.26 16.586C131.774 17.3314 131.09 17.912 130.206 18.328C129.322 18.7267 128.29 18.9434 127.112 18.978L126.644 17.366C128.048 17.3834 129.296 17.6087 130.388 18.042C131.48 18.458 132.346 19.056 132.988 19.836C133.629 20.5987 133.95 21.5087 133.95 22.566C133.95 23.554 133.768 24.3947 133.404 25.088C133.04 25.764 132.554 26.3187 131.948 26.752C131.341 27.1854 130.656 27.506 129.894 27.714C129.131 27.9047 128.334 28 127.502 28H121.6V9.07202H126.774ZM127.268 17.132C128.169 17.132 128.828 16.872 129.244 16.352C129.677 15.8147 129.894 15.1907 129.894 14.48C129.894 13.6134 129.625 12.9807 129.088 12.582C128.55 12.1834 127.822 11.984 126.904 11.984H124.642V17.132H127.268ZM127.372 25.192C128.013 25.192 128.594 25.1054 129.114 24.932C129.634 24.7414 130.041 24.4554 130.336 24.074C130.648 23.6754 130.804 23.1814 130.804 22.592C130.804 21.9334 130.622 21.422 130.258 21.058C129.911 20.694 129.46 20.434 128.906 20.278C128.351 20.122 127.77 20.044 127.164 20.044H124.642V25.192H127.372Z" fill="#2C384A"/>
</svg>
