<svg width="180" height="37" viewBox="0 0 180 37" fill="none" xmlns="http://www.w3.org/2000/svg">
<path fill-rule="evenodd" clip-rule="evenodd" d="M91.3524 0.182421L91.0143 0L90.6992 0.22061C89.6881 0.928683 88.1561 2.20142 86.8134 3.81563C85.6482 5.21639 84.5854 6.92231 84.171 8.77607L84.1682 8.77545C84.1674 8.7791 84.1666 8.78275 84.1658 8.78641C79.5731 9.21855 75.9781 13.1225 75.9781 17.8747C75.9781 19.1123 76.3398 20.2446 76.8741 21.2832C76.3551 22.1347 75.6539 23.4315 75.0755 24.8214C74.4549 26.3129 73.9343 28.0072 74.0068 29.3906L74.0236 29.7113L74.2895 29.8873C75.8127 30.8957 80.0243 32.4282 85.4011 31.1732L91.003 37L96.6593 31.1872C102.007 32.4168 106.193 30.8919 107.711 29.8873L107.976 29.7113L107.993 29.3906C108.066 28.0072 107.545 26.3129 106.924 24.8214C106.399 23.5588 105.772 22.3729 105.273 21.528C105.256 21.4965 105.237 21.4645 105.219 21.4321C105.791 20.3622 106.171 19.1969 106.171 17.8747C106.171 13.121 102.574 9.21605 97.9791 8.78599C96.5573 4.00637 93.0179 1.08094 91.3524 0.182421ZM96.6541 8.75937C95.3775 4.90773 92.6053 2.43567 91.0932 1.49431C90.1667 2.18202 88.8966 3.28193 87.7743 4.6312C86.5087 6.15268 85.4835 7.92819 85.2795 9.74191L85.252 9.73875C85.0782 10.6175 84.9035 11.6136 84.8198 12.2315C84.7352 13.2268 84.6638 14.5682 84.82 14.7596L86.2659 13.9033C86.2603 13.6356 86.2757 13.2594 86.3062 12.8941H86.3055C86.3055 12.3718 86.5038 11.6036 86.71 10.9301C86.9217 10.2388 87.174 9.54794 87.3463 9.11136C87.3522 9.09359 87.3582 9.07589 87.3642 9.05829C87.3672 9.05912 87.3703 9.05996 87.3734 9.06079C87.8307 7.16858 89.9716 4.82342 91.003 3.83856C92.1813 4.87016 94.4755 7.26942 94.7871 9.05777C95.3871 8.89516 96.0117 8.79338 96.6541 8.75937ZM92.2928 11.7211C92.3784 11.7666 92.4633 11.8119 92.5476 11.8569C93.0098 12.1036 93.4525 12.3423 93.8524 12.5614C96.8531 10.7557 99.701 12.0619 100.757 12.9484C102.997 14.2513 103.282 17.3013 103.134 18.8882C103.606 19.3705 104.031 19.84 104.389 20.2752C104.721 19.5247 104.916 18.7397 104.916 17.8747C104.916 13.5336 101.432 10.0145 97.1348 10.0145C95.3035 10.0145 93.6222 10.6521 92.2928 11.7211ZM103.733 21.4786C103.268 20.8597 102.558 20.0714 101.679 19.2188C100.763 18.3308 99.6937 17.4009 98.5871 16.5582C98.5489 16.8953 98.5105 17.2729 98.4731 17.6406L98.4731 17.6409L98.4731 17.6412L98.4729 17.6425L98.461 17.7597C98.4544 17.8249 98.4478 17.8896 98.4412 17.9536C98.4142 18.2173 98.3878 18.4681 98.3629 18.6798C99.7188 19.6012 100.865 20.4727 101.592 21.1982L101.595 21.1949L101.674 21.281C101.778 21.3888 101.873 21.4932 101.958 21.5938L102.417 22.0987L102.878 22.6832C102.879 22.6818 102.88 22.6803 102.881 22.6789L102.956 22.7818L103.273 23.1847L103.27 23.1877C104.555 24.825 105.18 27.2342 105.221 28.0893C103.431 28.9031 100.748 28.7505 99.255 28.5197L97.7078 30.1097C102.014 30.8943 105.353 29.7819 106.743 28.997C106.713 27.9575 106.317 26.6323 105.767 25.3127C105.264 24.102 104.659 22.9615 104.186 22.1619L104.186 22.1619L104.184 22.1589C104.12 22.0505 104.058 21.9483 103.999 21.8532C103.929 21.7465 103.848 21.6323 103.758 21.5114C103.75 21.501 103.741 21.4905 103.732 21.4801C103.733 21.4796 103.733 21.4791 103.733 21.4786ZM102.071 23.695L101.463 22.9235L101.203 22.638L91.1643 32.762L88.6294 30.1888L88.6173 30.1932C88.1952 30.3471 87.6981 30.5018 87.1894 30.6471C87.0474 30.6877 86.9038 30.7277 86.7601 30.767L91.0084 35.1859L101.445 24.4601C101.555 24.3261 101.663 24.1936 101.771 24.0624L101.773 24.0597L101.773 24.0596C101.873 23.937 101.973 23.8155 102.071 23.695ZM77.6078 22.518C77.173 23.283 76.6656 24.2719 76.2325 25.3127C75.6834 26.6323 75.2873 27.9575 75.2569 28.997C76.6282 29.7712 79.8949 30.864 84.1165 30.1407L84.1108 30.114C84.7917 29.9651 85.8607 29.7092 86.8478 29.4272C87.3418 29.2861 87.8077 29.1406 88.1912 29.0007C88.3053 28.9591 88.4076 28.9196 88.4982 28.8825C88.6012 28.8369 88.7075 28.7888 88.815 28.7394C88.8771 28.7076 88.9255 28.6792 88.9604 28.6548L88.9694 28.668C89.4013 28.4668 89.8339 28.2542 90.1244 28.1075L88.9232 26.9846C88.5454 27.2733 87.6788 27.616 86.965 27.8635C85.1562 28.7043 83.1713 28.6944 81.8917 28.688L81.8301 28.6877C80.4267 28.7484 78.6893 28.6217 77.3587 28.0169C77.3952 27.2534 77.7199 25.5124 78.6971 23.9935C78.3261 23.526 77.9533 23.0347 77.6078 22.518ZM83.5073 27.3835C84.1692 27.3406 84.8623 27.2481 85.5383 27.0508L80.317 21.7505C79.062 19.9695 77.5559 15.7013 81.5721 12.876C81.9742 12.522 82.6948 12.0803 83.6078 11.8373C83.68 11.3472 83.7885 10.7162 83.9051 10.0937C80.1331 10.6376 77.2332 13.9141 77.2332 17.8747C77.2332 19.0849 77.668 20.2204 78.3459 21.3358C78.9121 22.2675 79.5945 23.1058 80.2746 23.9413C80.4126 24.1108 80.5505 24.2802 80.6873 24.4502L83.5073 27.3835ZM97.1928 17.8229C97.1878 17.8721 97.1828 17.9205 97.1779 17.968C97.1559 18.1247 97.1297 18.2734 97.1005 18.3736C97.0998 18.3761 97.0989 18.3783 97.0979 18.3803C96.8548 20.6719 94.4416 24.0632 93.1903 25.5538L91.8815 24.5215C94.4402 21.5583 95.4058 18.7353 95.6332 17.3663L95.6287 17.3656L95.6401 17.2761L95.6404 17.2761L95.8568 15.7457L96.0371 14.1429L96.0224 14.1412C96.0468 13.7693 96.0636 13.1988 96.0053 12.8217H97.6548C97.5999 13.5749 97.4858 15.1137 97.434 15.7095L97.4294 15.7165L97.4286 15.7163L97.4283 15.718L97.4278 15.7187L97.4282 15.7189C97.3593 16.1857 97.2881 16.8866 97.224 17.5175C97.2177 17.5789 97.2115 17.6397 97.2055 17.6995L97.1928 17.8229ZM94.6118 15.5845L94.5185 16.244C92.001 14.7346 89.4102 13.3114 87.6272 12.3776C87.6873 12.079 87.7853 11.7088 87.909 11.3047C87.9484 11.176 87.9894 11.0471 88.031 10.9199C89.1507 11.4969 90.6412 12.2731 91.9612 12.9778C92.7225 13.3842 93.424 13.7652 93.964 14.0697C94.2343 14.2222 94.4604 14.3534 94.6317 14.4579C94.668 14.4801 94.7013 14.5007 94.7316 14.5197L94.6118 15.5845ZM80.9984 20.8992C80.7115 20.5672 80.1593 19.7655 80.2453 19.2149C82.0622 17.7539 86.2266 14.6364 88.3494 13.854L89.981 14.7958C87.0704 16.4499 81.1992 19.9864 80.9984 20.8992ZM93.531 28.8319L94.6247 27.6185C89.2459 24.8656 87.0167 20.1687 86.5744 18.1645L85.2118 18.9432C86.1011 23.797 91.1285 27.5581 93.531 28.8319Z" fill="#5E55AE" fill-opacity="0.85"/>
<path d="M2.6 25V6.072H7.982C9.87133 6.072 11.4747 6.358 12.792 6.93C14.1093 7.48467 15.1753 8.23867 15.99 9.192C16.8047 10.128 17.394 11.1767 17.758 12.338C18.1393 13.482 18.33 14.6347 18.33 15.796C18.33 17.2173 18.0787 18.4913 17.576 19.618C17.0733 20.7447 16.3887 21.7153 15.522 22.53C14.6553 23.3273 13.65 23.9427 12.506 24.376C11.3793 24.792 10.1747 25 8.892 25H2.6ZM5.642 22.088H8.346C9.35133 22.088 10.27 21.9493 11.102 21.672C11.934 21.3773 12.6533 20.9613 13.26 20.424C13.884 19.8693 14.3607 19.1847 14.69 18.37C15.0367 17.5553 15.21 16.628 15.21 15.588C15.21 14.4093 15.0107 13.404 14.612 12.572C14.2307 11.7227 13.7193 11.038 13.078 10.518C12.454 9.98067 11.7693 9.59067 11.024 9.348C10.2787 9.10533 9.542 8.984 8.814 8.984H5.642V22.088ZM20.8713 19.384C20.8713 18.2747 21.1313 17.278 21.6513 16.394C22.1713 15.4927 22.8993 14.7907 23.8353 14.288C24.7886 13.768 25.8633 13.508 27.0593 13.508C28.29 13.508 29.356 13.768 30.2573 14.288C31.176 14.7907 31.8866 15.4927 32.3893 16.394C32.892 17.278 33.1433 18.2747 33.1433 19.384C33.1433 20.4933 32.892 21.4987 32.3893 22.4C31.8866 23.284 31.176 23.986 30.2573 24.506C29.356 25.026 28.2813 25.286 27.0333 25.286C25.8546 25.286 24.7973 25.052 23.8613 24.584C22.9253 24.0987 22.1886 23.414 21.6513 22.53C21.1313 21.646 20.8713 20.5973 20.8713 19.384ZM23.8093 19.41C23.8093 20.0513 23.948 20.6407 24.2253 21.178C24.5026 21.698 24.884 22.114 25.3693 22.426C25.8546 22.738 26.392 22.894 26.9813 22.894C27.6226 22.894 28.1773 22.738 28.6453 22.426C29.1306 22.114 29.5033 21.698 29.7633 21.178C30.0406 20.6407 30.1793 20.0513 30.1793 19.41C30.1793 18.7513 30.0406 18.162 29.7633 17.642C29.5033 17.1047 29.1306 16.68 28.6453 16.368C28.1773 16.056 27.6226 15.9 26.9813 15.9C26.3746 15.9 25.8286 16.0647 25.3433 16.394C24.8753 16.706 24.5026 17.122 24.2253 17.642C23.948 18.162 23.8093 18.7513 23.8093 19.41ZM39.7392 25.468C38.7338 25.468 37.9018 25.1647 37.2432 24.558C36.5845 23.934 36.2378 23.1367 36.2032 22.166V14.002H39.1152V21.126C39.1498 21.6633 39.3058 22.1053 39.5832 22.452C39.8605 22.7987 40.3025 22.972 40.9092 22.972C41.4812 22.972 41.9925 22.7987 42.4432 22.452C42.8938 22.088 43.2405 21.594 43.4832 20.97C43.7432 20.346 43.8732 19.644 43.8732 18.864V14.002H46.7852V25H44.1592L43.9252 22.582L44.0032 22.972C43.7778 23.44 43.4572 23.8733 43.0412 24.272C42.6252 24.6533 42.1312 24.948 41.5592 25.156C41.0045 25.364 40.3978 25.468 39.7392 25.468ZM50.8028 4.72H53.7148V25H50.8028V4.72ZM62.337 25.286C61.297 25.286 60.3524 25.0693 59.503 24.636C58.671 24.2027 58.0124 23.5613 57.527 22.712C57.0417 21.8453 56.799 20.7793 56.799 19.514C56.799 18.266 57.0504 17.2 57.553 16.316C58.073 15.4147 58.749 14.7213 59.581 14.236C60.4304 13.7507 61.349 13.508 62.337 13.508C63.3944 13.508 64.2437 13.716 64.885 14.132C65.5437 14.548 66.055 15.042 66.419 15.614L66.263 16.03L66.549 14.002H69.227V25H66.315V22.322L66.601 23.024C66.5317 23.128 66.393 23.3013 66.185 23.544C65.977 23.7693 65.691 24.0207 65.327 24.298C64.963 24.5753 64.5297 24.8093 64.027 25C63.5417 25.1907 62.9784 25.286 62.337 25.286ZM63.143 22.894C63.663 22.894 64.131 22.7987 64.547 22.608C64.9804 22.4173 65.3444 22.1487 65.639 21.802C65.951 21.4553 66.1764 21.0393 66.315 20.554V18.162C66.1764 17.7113 65.951 17.3213 65.639 16.992C65.327 16.6453 64.9457 16.3767 64.495 16.186C64.0617 15.9953 63.5764 15.9 63.039 15.9C62.4497 15.9 61.9037 16.0473 61.401 16.342C60.8984 16.6367 60.491 17.044 60.179 17.564C59.8844 18.084 59.737 18.682 59.737 19.358C59.737 20.0167 59.893 20.6147 60.205 21.152C60.517 21.6893 60.933 22.114 61.453 22.426C61.973 22.738 62.5364 22.894 63.143 22.894Z" fill="#2C384A"/>
<path d="M117.774 6.072C119.698 6.072 121.215 6.462 122.324 7.242C123.451 8.022 124.014 9.218 124.014 10.83C124.014 11.9047 123.763 12.8233 123.26 13.586C122.775 14.3313 122.09 14.912 121.206 15.328C120.322 15.7267 119.291 15.9433 118.112 15.978L117.644 14.366C119.048 14.3833 120.296 14.6087 121.388 15.042C122.48 15.458 123.347 16.056 123.988 16.836C124.629 17.5987 124.95 18.5087 124.95 19.566C124.95 20.554 124.768 21.3947 124.404 22.088C124.04 22.764 123.555 23.3187 122.948 23.752C122.341 24.1853 121.657 24.506 120.894 24.714C120.131 24.9047 119.334 25 118.502 25H112.6V6.072H117.774ZM118.268 14.132C119.169 14.132 119.828 13.872 120.244 13.352C120.677 12.8147 120.894 12.1907 120.894 11.48C120.894 10.6133 120.625 9.98067 120.088 9.582C119.551 9.18333 118.823 8.984 117.904 8.984H115.642V14.132H118.268ZM118.372 22.192C119.013 22.192 119.594 22.1053 120.114 21.932C120.634 21.7413 121.041 21.4553 121.336 21.074C121.648 20.6753 121.804 20.1813 121.804 19.592C121.804 18.9333 121.622 18.422 121.258 18.058C120.911 17.694 120.461 17.434 119.906 17.278C119.351 17.122 118.771 17.044 118.164 17.044H115.642V22.192H118.372ZM131.005 14.002L131.265 17.122L131.161 16.68C131.473 16.0213 131.898 15.458 132.435 14.99C132.99 14.5047 133.553 14.1407 134.125 13.898C134.697 13.638 135.165 13.508 135.529 13.508L135.399 16.42C134.567 16.3507 133.839 16.5067 133.215 16.888C132.608 17.252 132.132 17.7373 131.785 18.344C131.456 18.9507 131.291 19.592 131.291 20.268V25H128.379V14.002H131.005ZM138.51 14.002H141.422V25H138.51V14.002ZM138.38 10.076C138.38 9.62533 138.553 9.25267 138.9 8.958C139.264 8.66333 139.654 8.516 140.07 8.516C140.486 8.516 140.858 8.66333 141.188 8.958C141.534 9.25267 141.708 9.62533 141.708 10.076C141.708 10.5267 141.534 10.8993 141.188 11.194C140.858 11.4713 140.486 11.61 140.07 11.61C139.654 11.61 139.264 11.4627 138.9 11.168C138.553 10.8733 138.38 10.5093 138.38 10.076ZM149.914 25.286C148.874 25.286 147.947 25.0433 147.132 24.558C146.317 24.0727 145.676 23.3793 145.208 22.478C144.74 21.5767 144.506 20.528 144.506 19.332C144.506 18.1013 144.757 17.0527 145.26 16.186C145.763 15.3193 146.447 14.6607 147.314 14.21C148.198 13.742 149.186 13.508 150.278 13.508C151.075 13.508 151.838 13.664 152.566 13.976C153.294 14.2707 153.875 14.704 154.308 15.276L154.256 16.264V4.72H157.142V25H154.23V22.53L154.516 23.232C153.961 23.8213 153.294 24.3153 152.514 24.714C151.751 25.0953 150.885 25.286 149.914 25.286ZM150.85 22.816C151.422 22.816 151.925 22.7207 152.358 22.53C152.809 22.3393 153.19 22.0707 153.502 21.724C153.831 21.36 154.074 20.9353 154.23 20.45V18.11C154.091 17.6593 153.857 17.2607 153.528 16.914C153.216 16.5673 152.826 16.2987 152.358 16.108C151.89 15.9173 151.387 15.822 150.85 15.822C150.226 15.822 149.654 15.9693 149.134 16.264C148.631 16.5587 148.224 16.966 147.912 17.486C147.6 18.006 147.444 18.604 147.444 19.28C147.444 19.9387 147.6 20.5367 147.912 21.074C148.224 21.6113 148.64 22.036 149.16 22.348C149.68 22.66 150.243 22.816 150.85 22.816ZM161.158 14.002H164.07V25H161.158V14.002ZM161.028 10.076C161.028 9.62533 161.202 9.25267 161.548 8.958C161.912 8.66333 162.302 8.516 162.718 8.516C163.134 8.516 163.507 8.66333 163.836 8.958C164.183 9.25267 164.356 9.62533 164.356 10.076C164.356 10.5267 164.183 10.8993 163.836 11.194C163.507 11.4713 163.134 11.61 162.718 11.61C162.302 11.61 161.912 11.4627 161.548 11.168C161.202 10.8733 161.028 10.5093 161.028 10.076ZM173.317 25.286C172.017 25.286 170.907 25.0347 169.989 24.532C169.07 24.0293 168.368 23.336 167.883 22.452C167.397 21.5507 167.155 20.5367 167.155 19.41C167.155 18.3007 167.432 17.304 167.987 16.42C168.541 15.536 169.287 14.834 170.223 14.314C171.176 13.7767 172.225 13.508 173.369 13.508C174.877 13.508 176.116 13.95 177.087 14.834C178.075 15.7007 178.733 16.9313 179.062 18.526L170.197 21.516L169.521 19.878L176.437 17.408L175.839 17.746C175.648 17.226 175.336 16.7753 174.903 16.394C174.487 16.0127 173.897 15.822 173.135 15.822C172.528 15.822 171.991 15.9693 171.523 16.264C171.055 16.5413 170.682 16.94 170.405 17.46C170.145 17.9627 170.015 18.5607 170.015 19.254C170.015 19.9647 170.162 20.5887 170.457 21.126C170.751 21.6633 171.15 22.0793 171.653 22.374C172.155 22.6513 172.727 22.79 173.369 22.79C173.819 22.79 174.253 22.712 174.669 22.556C175.085 22.4 175.475 22.192 175.839 21.932L177.165 24.09C176.593 24.454 175.96 24.7487 175.267 24.974C174.591 25.182 173.941 25.286 173.317 25.286Z" fill="#2C384A"/>
</svg>
