<svg width="333" height="226" viewBox="0 0 333 226" fill="none" xmlns="http://www.w3.org/2000/svg">
<path fill-rule="evenodd" clip-rule="evenodd" d="M-254.309 226C-238.69 182.375 -214.319 143.449 -183.678 111.545C-128.503 54.0963 -54.0523 20.249 26.2617 20.249C106.576 20.249 181.027 54.0963 236.201 111.545C266.842 143.449 291.213 182.375 306.832 226L332.523 226C287.944 94.6721 167.656 0.581773 26.2617 0.58176C-115.132 0.581748 -235.42 94.672 -280 226L-254.309 226Z" fill="#EDECF3"/>
<path fill-rule="evenodd" clip-rule="evenodd" d="M-79.6927 226C-47.0209 184.241 -9.28302 163.972 26.2624 163.972C61.8077 163.972 99.5456 184.241 132.217 226L160.965 226C124.791 175.082 77.7233 144.305 26.2624 144.305C-25.1986 144.305 -72.2662 175.082 -108.44 226L-79.6927 226Z" fill="#EDECF3"/>
<path fill-rule="evenodd" clip-rule="evenodd" d="M-169.963 225.999C-160.572 207.501 -149.784 190.405 -137.832 174.975C-92.9604 117.04 -34.2489 85.302 26.2608 85.302C86.7704 85.3021 145.482 117.04 190.354 174.975C202.305 190.405 213.093 207.501 222.484 225.999L249.079 225.999C202.917 129.749 120.388 65.6348 26.2608 65.6348C-67.8665 65.6348 -150.395 129.749 -196.557 225.999L-169.963 225.999Z" fill="#EDECF3"/>
</svg>
