<svg width="184" height="121" viewBox="0 0 184 121" fill="none" xmlns="http://www.w3.org/2000/svg">
<path fill-rule="evenodd" clip-rule="evenodd" d="M293.933 121C286.115 97.5834 273.917 76.6886 258.58 59.5632C230.964 28.7256 193.699 10.557 153.5 10.557C113.301 10.557 76.0366 28.7256 48.4204 59.5632C33.0839 76.6886 20.8856 97.5834 13.0681 121H0.208984C22.5223 50.5058 82.7293 0 153.5 0C224.271 0 284.478 50.5058 306.792 121H293.933Z" fill="#EBE3DC"/>
<path fill-rule="evenodd" clip-rule="evenodd" d="M206.533 121C190.18 98.5847 171.292 87.7047 153.5 87.7047C135.709 87.7047 116.82 98.5847 100.467 121H86.0786C104.184 93.6682 127.743 77.1477 153.5 77.1477C179.258 77.1477 202.816 93.6682 220.922 121H206.533Z" fill="#EBE3DC"/>
<path fill-rule="evenodd" clip-rule="evenodd" d="M251.715 121C247.015 111.071 241.615 101.894 235.633 93.6113C213.174 62.5129 183.787 45.4764 153.501 45.4764C123.214 45.4764 93.8276 62.5129 71.3681 93.6113C65.3863 101.894 59.9866 111.071 55.2863 121H41.9751C65.0801 69.3349 106.388 34.9194 153.501 34.9194C200.614 34.9194 241.921 69.3349 265.026 121H251.715Z" fill="#EBE3DC"/>
</svg>
